<?xml version="1.0" encoding="UTF-8" standalone="no"?>
<svg width="140px" height="21px" viewBox="0 0 140 21" version="1.1" xmlns="http://www.w3.org/2000/svg" xmlns:xlink="http://www.w3.org/1999/xlink">
    <!-- Generator: Sketch 40.3 (33839) - http://www.bohemiancoding.com/sketch -->
    <title>Page 1</title>
    <desc>Created with Sketch.</desc>
    <defs>
        <polygon id="path-1" points="0 0.7098 0 18.9998 114.7586 18.9998 114.7586 0.7098 2.71050543e-20 0.7098"></polygon>
    </defs>
    <g id="Page-1" stroke="none" stroke-width="1" fill="none" fill-rule="evenodd">
        <g id="Artboard" transform="translate(-148.000000, -83.000000)">
            <g id="Page-1" transform="translate(148.000000, 83.000000)">
                <path d="M140,10.0961 C140,4.5201 135.48,0.0001 129.904,0.0001 L129.904,10.0961 L119.807,10.0961 C119.807,15.6721 124.328,20.1921 129.904,20.1921 L129.904,10.0961 L140,10.0961 Z" id="Fill-1" fill="#E68000"></path>
                <path d="M130.4842,20.1747 C135.5982,19.8847 139.6922,15.7897 139.9822,10.6767 C134.8162,11.6347 131.4422,15.0087 130.4842,20.1747" id="Fill-3" fill="#E68000"></path>
                <path d="M129.3231,0.0176 C124.2101,0.3076 120.1151,4.4026 119.8251,9.5156 C124.9911,8.5576 128.3651,5.1836 129.3231,0.0176" id="Fill-5" fill="#E68000"></path>
                <g id="Group-9" transform="translate(0.000000, 1.192600)">
                    <mask id="mask-2" fill="white">
                        <use xlink:href="#path-1"></use>
                    </mask>
                    <g id="Clip-8"></g>
                    <path d="M6.4296,6.4438 L3.0656,6.4438 L3.0656,0.7108 L-0.0004,0.7108 L-0.0004,15.1028 L3.0656,15.1028 L3.0656,8.7148 L6.4296,8.7148 L6.4296,15.1028 L9.4956,15.1028 L9.4956,0.7108 L6.4296,0.7108 L6.4296,6.4438 Z M19.3806,13.0838 L19.3806,5.0148 L16.5126,5.0148 L16.5126,11.9938 C16.5126,12.9008 16.3396,13.5058 15.4956,13.5058 C14.8846,13.5058 14.4786,13.2488 14.4786,11.9938 L14.4786,5.0148 L11.6106,5.0148 L11.6106,13.0838 C11.6106,13.7508 11.8756,14.3178 12.3756,14.7228 C12.8356,15.0958 13.4646,15.3008 14.1456,15.3008 C14.7066,15.3008 15.1466,15.2118 15.5296,15.0198 C15.9016,14.8528 16.2236,14.5558 16.5126,14.1128 L16.5126,15.1028 L19.4826,15.1028 L19.4796,15.0648 C19.4126,14.3318 19.3806,13.6838 19.3806,13.0838 L19.3806,13.0838 Z M26.5336,4.8168 C25.9816,4.8168 25.5276,4.9088 25.1496,5.0978 C24.7596,5.2828 24.4296,5.5868 24.1676,6.0038 L24.1676,5.0148 L21.2996,5.0148 L21.2996,15.1028 L24.1676,15.1028 L24.1676,8.1648 C24.1676,7.2328 24.3406,6.6118 25.1846,6.6118 C26.0286,6.6118 26.2016,7.2328 26.2016,8.1648 L26.2016,15.1028 L29.0686,15.1028 L29.0686,7.0338 C29.0686,6.3668 28.8046,5.7998 28.3046,5.3948 C27.8446,5.0218 27.2156,4.8168 26.5336,4.8168 L26.5336,4.8168 Z M34.1756,2.1598 L31.3276,3.4318 L31.3076,3.4408 L31.3076,5.0148 L30.1766,5.0148 L30.1766,6.8108 L31.3076,6.8108 L31.3076,12.9448 C31.3076,13.3218 31.4416,15.2018 34.0806,15.2018 C34.6486,15.2018 35.0196,15.1598 35.3476,15.1228 C35.4106,15.1158 35.4716,15.1088 35.5336,15.1018 L35.5636,15.0998 L35.5636,13.2958 L35.5196,13.3088 C35.3856,13.3468 35.2066,13.3468 35.0336,13.3468 C34.6276,13.3468 34.3966,13.2518 34.2826,13.0368 C34.1746,12.8348 34.1746,12.5308 34.1756,12.1788 L34.1756,6.8108 L35.6236,6.8108 L35.6236,5.0148 L34.1756,5.0148 L34.1756,2.1598 Z M40.6086,4.8168 C36.8046,4.8168 36.4856,7.3428 36.4856,9.9298 C36.4856,11.3398 36.5706,12.7828 37.1806,13.7918 C37.8036,14.8218 38.8936,15.3008 40.6086,15.3008 C41.8746,15.3008 42.9056,14.9618 43.5896,14.3198 C44.2576,13.7108 44.6316,12.8038 44.6726,11.6968 L44.6736,11.6608 L41.7646,11.6608 L41.7646,11.6958 C41.7646,12.8568 41.3756,13.4468 40.6086,13.4468 C39.3866,13.4468 39.3736,11.5758 39.3726,10.5398 L44.7306,10.5398 L44.7316,10.5068 C44.7876,8.7028 44.6976,6.8878 43.6756,5.8338 C43.0116,5.1498 42.0086,4.8168 40.6086,4.8168 L40.6086,4.8168 Z M41.8636,8.9038 L39.3726,8.9038 L39.3726,8.9008 C39.3726,8.4768 39.3726,7.8958 39.5296,7.4278 C39.7136,6.8788 40.0666,6.6118 40.6086,6.6118 C40.9616,6.6118 41.2306,6.7088 41.4306,6.9088 C41.8656,7.3448 41.8646,8.1828 41.8636,8.8558 L41.8636,8.9038 Z M49.0676,6.2668 L49.0676,5.0148 L46.3396,5.0148 L46.3396,15.1028 L49.2066,15.1028 L49.2066,9.6128 C49.2066,9.1848 49.2066,8.5978 49.4826,8.1408 C49.7936,7.6238 50.3916,7.3738 51.3106,7.3738 C51.4256,7.3738 51.5466,7.3778 51.6706,7.3858 L51.7076,7.3878 L51.7076,4.8168 L51.6726,4.8168 C50.3646,4.8168 49.5346,5.2778 49.0676,6.2668 L49.0676,6.2668 Z M62.8476,7.8268 C62.8476,3.3198 62.0786,0.7108 58.1486,0.7108 L53.1136,0.7108 L53.1136,15.1028 L58.0296,15.1028 C59.4676,15.1028 60.5966,14.6998 61.3846,13.9058 C62.8826,12.3958 62.8616,9.7778 62.8496,8.2138 C62.8486,8.0778 62.8476,7.9478 62.8476,7.8268 L62.8476,7.8268 Z M57.5936,12.8308 L56.1796,12.8308 L56.1796,2.9818 L57.6926,2.9818 C59.7416,2.9818 59.7416,5.2638 59.7416,7.9068 C59.7416,11.3798 59.4436,12.8308 57.5936,12.8308 L57.5936,12.8308 Z M68.2276,4.8158 C64.4236,4.8158 64.1056,7.3418 64.1056,9.9298 C64.1056,11.3388 64.1896,12.7828 64.7996,13.7908 C65.4236,14.8208 66.5126,15.3008 68.2276,15.3008 C69.9426,15.3008 71.0316,14.8208 71.6556,13.7908 C72.2666,12.7828 72.3506,11.3388 72.3506,9.9298 C72.3506,7.3418 72.0326,4.8158 68.2276,4.8158 L68.2276,4.8158 Z M68.2276,13.4458 C67.2076,13.4458 66.9726,12.7588 66.9726,9.7708 C66.9726,7.6158 67.0916,6.6708 68.2276,6.6708 C69.3646,6.6708 69.4826,7.6158 69.4826,9.7708 C69.4826,12.7588 69.2476,13.4458 68.2276,13.4458 L68.2276,13.4458 Z M81.7596,13.0838 L81.7596,5.0148 L78.8916,5.0148 L78.8916,11.9928 C78.8916,12.9008 78.7186,13.5048 77.8746,13.5048 C77.2646,13.5048 76.8576,13.2478 76.8576,11.9928 L76.8576,5.0148 L73.9906,5.0148 L73.9906,13.0838 C73.9906,13.7508 74.2546,14.3168 74.7546,14.7228 C75.2146,15.0948 75.8436,15.3008 76.5256,15.3008 C77.0856,15.3008 77.5256,15.2108 77.9086,15.0198 C78.2816,14.8518 78.6036,14.5548 78.8916,14.1118 L78.8916,15.1018 L81.8616,15.1018 L81.8586,15.0638 C81.7916,14.3308 81.7596,13.6828 81.7596,13.0838 L81.7596,13.0838 Z M88.6796,6.1458 C88.2916,5.2998 87.4766,4.8158 86.4316,4.8158 C83.4406,4.8158 83.4406,7.7258 83.4406,9.8498 L83.4396,10.1318 C83.4366,11.6248 83.4316,13.3178 84.3606,14.2488 C84.8406,14.7298 85.5116,14.9638 86.4116,14.9638 C87.3536,14.9638 88.1266,14.5478 88.5406,13.8218 L88.5406,15.7318 C88.5406,16.7838 88.1866,17.3628 87.5436,17.3628 C87.1246,17.3628 86.8116,17.2308 86.6376,16.9808 C86.4826,16.7728 86.4066,16.4488 86.4066,15.9898 L86.4066,15.9548 L83.5976,15.9548 L83.5986,15.9908 C83.6276,17.1388 84.0266,17.9338 84.8216,18.4218 C85.4536,18.8108 86.3516,18.9998 87.5626,18.9998 C89.1936,18.9998 90.3266,18.5128 90.9276,17.5508 C91.4086,16.7808 91.4086,15.9208 91.4076,15.5548 L91.4076,5.0148 L88.6796,5.0148 L88.6796,6.1458 Z M87.4246,13.1678 C87.1346,13.1678 86.8966,13.0758 86.7176,12.8948 C86.2266,12.3988 86.2386,11.3218 86.2466,10.6088 C86.2476,10.5218 86.2486,10.4408 86.2486,10.3658 C86.2486,7.2428 86.4496,6.6118 87.4436,6.6118 C88.4666,6.6118 88.5406,7.9028 88.5406,10.0288 C88.5406,12.1998 88.3796,13.1678 87.4246,13.1678 L87.4246,13.1678 Z M105.6566,14.7228 C105.6056,14.2218 105.5526,13.7028 105.5526,13.2028 L105.5526,8.2038 C105.5526,6.5648 105.2406,4.8158 101.5086,4.8158 C100.3256,4.8158 99.4626,5.0328 98.8696,5.4768 C98.1656,5.9678 97.8226,6.7748 97.8226,7.9458 L97.8226,7.9808 L100.6306,7.9808 L100.6306,7.9458 C100.6306,7.1588 100.7086,6.4528 101.6476,6.4528 C102.6616,6.4528 102.7446,7.1018 102.7446,7.8858 L102.7446,8.6248 C102.5736,8.6218 102.4036,8.6198 102.2336,8.6198 C99.9846,8.6198 97.5846,8.8868 97.5846,12.0718 C97.5846,14.8808 99.2726,15.3008 100.2786,15.3008 C101.4646,15.3008 102.3006,14.8208 102.9076,13.7908 L103.0246,15.1018 L105.6946,15.1018 L105.6916,15.0638 C105.6806,14.9508 105.6686,14.8368 105.6566,14.7228 L105.6566,14.7228 Z M102.2536,13.1758 C102.0406,13.3948 101.7496,13.5048 101.3896,13.5048 C100.9616,13.5048 100.3926,13.3438 100.3926,11.9528 C100.3926,10.3428 101.2136,10.3158 102.4566,10.2738 C102.5506,10.2708 102.6466,10.2678 102.7446,10.2628 C102.7446,10.3758 102.7476,10.4978 102.7506,10.6288 C102.7706,11.4688 102.7976,12.6188 102.2536,13.1758 L102.2536,13.1758 Z M111.6396,8.9198 C110.6726,8.4918 109.8376,8.1218 109.8376,7.4898 C109.8376,6.8208 110.1636,6.4528 110.7546,6.4528 C111.0046,6.4528 111.2616,6.4778 111.4456,6.6618 C111.6306,6.8278 111.7126,7.2168 111.7126,7.9258 L111.7126,7.9608 L114.5186,7.9608 L114.5206,7.9288 C114.5836,7.0788 114.3636,6.3758 113.8666,5.8418 C113.2516,5.1808 112.2386,4.8158 111.0126,4.8158 C109.9736,4.8158 109.0256,5.0298 108.3436,5.4178 C107.4716,5.9158 107.0296,6.6728 107.0296,7.6678 C107.0296,9.4508 108.5466,10.1058 109.8856,10.6848 C110.9936,11.1638 111.9506,11.5778 111.9506,12.5078 C111.9506,13.1968 111.4496,13.5048 110.9536,13.5048 C110.4336,13.5048 110.1306,13.3638 109.9736,13.0498 C109.8566,12.7828 109.8136,12.4038 109.8376,11.8548 L109.8386,11.8188 L107.0306,11.8188 L107.0296,11.8518 C106.9646,12.9868 107.1886,13.8098 107.7126,14.3648 C108.3246,15.0118 109.3296,15.3008 110.9736,15.3008 C113.2376,15.3008 114.7586,14.0588 114.7586,12.2108 C114.7586,10.3008 113.0296,9.5358 111.6396,8.9198 L111.6396,8.9198 Z M93.3196,15.1018 L96.1866,15.1018 L96.1866,0.7098 L93.3196,0.7098 L93.3196,15.1018 Z" id="Fill-7" fill="#5B6770" mask="url(#mask-2)"></path>
                </g>
            </g>
        </g>
    </g>
</svg>